<?xml version="1.0" standalone="no"?>
<!DOCTYPE svg PUBLIC "-//W3C//DTD SVG 20010904//EN"
 "http://www.w3.org/TR/2001/REC-SVG-20010904/DTD/svg10.dtd">
<svg version="1.0" xmlns="http://www.w3.org/2000/svg"
 width="600.000000pt" height="600.000000pt" viewBox="0 0 600.000000 600.000000"
 preserveAspectRatio="xMidYMid meet">
<metadata>
Created by potrace 1.11, written by Peter Selinger 2001-2013
</metadata>
<g transform="translate(0.000000,600.000000) scale(0.100000,-0.100000)"
fill="#000000" stroke="none">
<path d="M0 3000 l0 -3000 3000 0 3000 0 0 3000 0 3000 -3000 0 -3000 0 0
-3000z m1352 303 l3 -1928 998 -3 997 -2 0 -285 0 -285 -1315 0 -1315 0 0
2215 0 2215 315 0 315 0 2 -1927z m865 1897 c60 -26 128 -94 160 -157 35 -73
38 -183 6 -255 -29 -65 -95 -133 -160 -165 -79 -38 -187 -38 -266 0 -114 56
-180 161 -180 287 0 88 21 146 79 209 93 103 236 135 361 81z m950 0 c60 -26
128 -94 160 -157 35 -73 38 -183 6 -255 -29 -65 -95 -133 -160 -165 -79 -38
-187 -38 -266 0 -114 56 -180 161 -180 287 0 88 21 146 79 209 93 103 236 135
361 81z m960 0 c60 -26 128 -94 160 -157 35 -73 38 -183 6 -255 -29 -65 -95
-133 -160 -165 -79 -38 -187 -38 -266 0 -114 56 -180 161 -180 287 0 88 21
146 79 209 93 103 236 135 361 81z m950 0 c60 -26 128 -94 160 -157 35 -73 38
-183 6 -255 -29 -65 -95 -133 -160 -165 -79 -38 -187 -38 -266 0 -114 56 -180
161 -180 287 0 88 21 146 79 209 93 103 236 135 361 81z m0 -950 c60 -26 128
-94 160 -157 35 -73 38 -183 6 -255 -29 -65 -95 -133 -160 -165 -79 -38 -187
-38 -266 0 -114 56 -180 161 -180 287 0 88 21 146 79 209 93 103 236 135 361
81z m0 -950 c60 -26 128 -94 160 -157 35 -73 38 -183 6 -255 -29 -65 -95 -133
-160 -165 -79 -38 -187 -38 -266 0 -114 56 -180 161 -180 287 0 88 21 146 79
209 93 103 236 135 361 81z m0 -960 c60 -26 128 -94 160 -157 35 -73 38 -183
6 -255 -29 -65 -95 -133 -160 -165 -79 -38 -187 -38 -266 0 -114 56 -180 161
-180 287 0 88 21 146 79 209 93 103 236 135 361 81z m0 -950 c60 -26 128 -94
160 -157 35 -73 38 -183 6 -255 -29 -65 -95 -133 -160 -165 -79 -38 -187 -38
-266 0 -114 56 -180 161 -180 287 0 88 21 146 79 209 93 103 236 135 361 81z
m-970 -10 c60 -26 128 -94 160 -157 35 -73 38 -183 6 -255 -29 -65 -95 -133
-160 -165 -79 -38 -187 -38 -266 0 -114 56 -180 161 -180 287 0 88 21 146 79
209 93 103 236 135 361 81z"/>
</g>
</svg>
