<svg xmlns="http://www.w3.org/2000/svg" viewBox="0 0 600 338">
  <g fill="none" fill-rule="evenodd">
    <path fill="#FFF" d="M0 0h600v337H0z"/>
    <path stroke="#A0A5A9" stroke-width="5" d="M104.768 166.921H305.16V310.26H104.768z"/>
    <path fill="#A0A5A9" d="M160.822 207.85c3.536 0 6.998.401 10.386 1.203 3.387.803 7.042 2.17 10.965 4.101v11.322c-3.834-2.2-7.377-3.789-10.631-4.77-3.254-.98-6.649-1.47-10.185-1.47-4.428 0-8.424.913-11.99 2.74-3.566 1.828-6.337 4.406-8.313 7.734-1.976 3.328-2.964 7.028-2.964 11.099 0 4.16.98 7.89 2.942 11.188 1.96 3.298 4.724 5.846 8.29 7.644 3.566 1.798 7.578 2.697 12.035 2.697 3.417 0 6.678-.49 9.784-1.471 3.105-.981 7.02-2.749 11.745-5.305v11.322c-4.042 2.11-7.756 3.61-11.144 4.502-3.387.891-7.34 1.337-11.856 1.337-6.567 0-12.436-1.307-17.606-3.922-5.17-2.615-9.234-6.382-12.191-11.3-2.957-4.918-4.435-10.303-4.435-16.157 0-6.27 1.523-11.901 4.569-16.894 3.046-4.992 7.235-8.84 12.57-11.544 5.333-2.704 11.343-4.056 18.029-4.056zm51.571 0c6.062 0 11.9 1.515 17.517 4.546v10.698c-6.448-3.893-12.168-5.84-17.16-5.84-3.031 0-5.401.588-7.11 1.761-1.708 1.174-2.563 2.742-2.563 4.703 0 2.347 1.59 4.517 4.77 6.508.891.594 4.323 2.258 10.296 4.992 5.111 2.407 8.796 5.081 11.054 8.023 2.258 2.942 3.388 6.478 3.388 10.608 0 5.349-1.925 9.665-5.773 12.949-3.848 3.283-8.833 4.925-14.954 4.925-3.982 0-7.406-.438-10.274-1.315-2.868-.876-6.084-2.385-9.65-4.524v-11.856c6.656 5.527 12.926 8.29 18.81 8.29 2.942 0 5.319-.639 7.131-1.917 1.813-1.277 2.72-2.971 2.72-5.08 0-2.883-1.575-5.23-4.725-7.043-2.615-1.427-5.988-3.135-10.118-5.126-4.903-2.229-8.566-4.829-10.988-7.8-2.421-2.972-3.632-6.419-3.632-10.341 0-5.23 1.946-9.398 5.839-12.503 3.892-3.105 9.033-4.658 15.422-4.658zm48.763 0c6.062 0 11.9 1.515 17.517 4.546v10.698c-6.448-3.893-12.168-5.84-17.16-5.84-3.032 0-5.401.588-7.11 1.761-1.709 1.174-2.563 2.742-2.563 4.703 0 2.347 1.59 4.517 4.77 6.508.89.594 4.323 2.258 10.296 4.992 5.11 2.407 8.795 5.081 11.054 8.023 2.258 2.942 3.387 6.478 3.387 10.608 0 5.349-1.924 9.665-5.772 12.949-3.848 3.283-8.833 4.925-14.954 4.925-3.982 0-7.407-.438-10.274-1.315-2.868-.876-6.084-2.385-9.65-4.524v-11.856c6.656 5.527 12.926 8.29 18.81 8.29 2.941 0 5.319-.639 7.131-1.917 1.813-1.277 2.72-2.971 2.72-5.08 0-2.883-1.576-5.23-4.725-7.043-2.615-1.427-5.988-3.135-10.119-5.126-4.903-2.229-8.565-4.829-10.987-7.8-2.422-2.972-3.632-6.419-3.632-10.341 0-5.23 1.946-9.398 5.839-12.503 3.892-3.105 9.033-4.658 15.422-4.658z"/>
    <path stroke="#F3A9BB" stroke-width="20" d="M0 32h338.384c11.048 0 26.088 6.558 33.606 14.66l10.623 11.45c9.394 10.124 17.01 29.52 17.01 43.328v235.844"/>
    <path fill="#0098D4" fill-rule="nonzero" d="M0 39.93h340.465c8.55 0 19.716 4.334 26.025 10.1l119.671 145.614c3.388 3.096 10.733 5.948 15.32 5.948h98.331v15.859h-98.33c-8.548 0-19.71-4.333-26.02-10.1L355.792 61.735c-3.387-3.094-10.737-5.947-15.327-5.947H0V39.93z"/>
    <g>
      <path fill="#000" d="M116.034 75.88v52.863h30.221v9.405H104V75.88zM184.587 75.077c6.449 0 12.25 1.33 17.406 3.99 5.156 2.66 9.264 6.492 12.325 11.5 3.06 5.007 4.59 10.496 4.59 16.47 0 5.823-1.493 11.224-4.479 16.202-2.986 4.977-7.087 8.84-12.302 11.588-5.215 2.75-11.091 4.123-17.629 4.123-6.448 0-12.31-1.396-17.584-4.19-5.274-2.793-9.382-6.633-12.324-11.521-2.942-4.889-4.413-10.29-4.413-16.203 0-5.705 1.471-11.069 4.413-16.09 2.942-5.023 6.998-8.923 12.168-11.701 5.17-2.778 11.114-4.168 17.83-4.168zm-21.974 31.96c0 4.13.936 7.844 2.808 11.142 1.872 3.299 4.48 5.854 7.823 7.667 3.343 1.813 7.124 2.719 11.343 2.719 6.39 0 11.641-2.006 15.757-6.017 4.116-4.012 6.173-9.182 6.173-15.512 0-4.13-.928-7.852-2.785-11.165-1.858-3.314-4.473-5.876-7.845-7.69-3.373-1.812-7.17-2.718-11.389-2.718-4.22 0-8.015.914-11.388 2.741-3.373 1.828-5.965 4.383-7.778 7.667-1.813 3.283-2.719 7.005-2.719 11.165zM240.749 75.88l36.996 43.458V75.88h11.767v62.268h-10.341l-37.218-44.172v44.172h-11.767V75.88zM329.271 75.88c6.478 0 12.243 1.322 17.295 3.967 5.051 2.644 8.974 6.359 11.767 11.143 2.793 4.784 4.19 10.163 4.19 16.135 0 6.092-1.404 11.493-4.212 16.203-2.808 4.71-6.798 8.357-11.968 10.942-5.17 2.586-11.099 3.878-17.785 3.878h-25.362V75.88h26.075zm-1.248 52.863c6.657 0 11.998-1.998 16.024-5.995 4.027-3.997 6.04-9.234 6.04-15.712 0-6.715-2.028-12.02-6.084-15.912-4.056-3.893-9.517-5.84-16.38-5.84H315.23v43.46h12.792zm77.646-53.666c6.449 0 12.25 1.33 17.406 3.99 5.156 2.66 9.264 6.492 12.325 11.5 3.06 5.007 4.59 10.496 4.59 16.47 0 5.823-1.493 11.224-4.479 16.202-2.986 4.977-7.087 8.84-12.302 11.588-5.215 2.75-11.091 4.123-17.629 4.123-6.448 0-12.31-1.396-17.584-4.19-5.274-2.793-9.382-6.633-12.324-11.521-2.942-4.889-4.413-10.29-4.413-16.203 0-5.705 1.471-11.069 4.413-16.09 2.942-5.023 6.998-8.923 12.168-11.701 5.17-2.778 11.114-4.168 17.83-4.168z"/>
      <path fill="#FFF" d="M383.695 107.036c0 4.13.936 7.845 2.808 11.143 1.872 3.299 4.48 5.854 7.823 7.667 3.343 1.813 7.124 2.719 11.343 2.719 6.39 0 11.641-2.006 15.757-6.017 4.116-4.012 6.173-9.182 6.173-15.512 0-4.13-.928-7.852-2.785-11.165-1.858-3.314-4.473-5.876-7.845-7.69-3.373-1.812-7.17-2.718-11.389-2.718-4.22 0-8.015.914-11.388 2.741-3.373 1.828-5.965 4.383-7.778 7.667-1.813 3.283-2.719 7.005-2.719 11.165z"/>
      <path fill="#000" d="M461.831 75.88l36.996 43.458V75.88h11.767v62.268h-10.341l-37.218-44.172v44.172h-11.767V75.88z"/>
    </g>
  </g>
</svg>
