<svg preserveAspectRatio="xMidYMid meet" viewBox="0 0 1186 106" 
  xmlns="http://www.w3.org/2000/svg">
  <g transform="matrix(.1 0 0 -.1 0 106)">
    <path d="m4506 1039c-132-15-258-103-324-227-43-81-62-161-62-262 0-142 37-242 122-335 154-169 467-180 621-21 24 25 50 59 57 76 11 27 10 33-5 50-23 26-29 25-43-4-19-43-85-108-128-127-51-23-138-34-198-25-62 10-153 72-192 133-53 81-69 144-69 268 0 132 25 224 83 300 57 75 119 109 209 113 64 4 80 1 128-22 62-31 106-84 131-158 13-40 20-48 40-48h24l-6 133c-4 72-10 136-14 140s-19 3-33-4c-21-10-42-9-104 4-108 22-157 25-237 16z"/>
    <path d="m11335 1037c-165-55-236-193-171-333 31-66 83-109 219-179 203-105 237-138 237-232 0-92-65-143-183-143-115 0-213 74-249 188-10 34-17 42-33 40-21-3-26-25-38-200-5-71-4-78 13-78 9 0 23 7 30 15 17 21 35 19 126-11 68-22 92-25 174-22 120 5 183 31 244 99 92 102 86 241-16 339-20 20-96 68-168 106-140 74-201 119-225 165-32 62-6 142 56 175 47 24 144 21 203-6 55-26 91-66 122-137 17-39 29-53 44-53 12 0 20 7 20 17 0 49-24 249-30 257-5 4-21-1-37-13-27-20-30-20-78-5-70 21-210 27-260 11z"/>
    <path d="m2641 1022c-5-10-85-189-176-397-91-207-178-396-193-419-16-25-44-49-69-61-78-37-58-45 112-45 117 0 155 3 155 13 0 6-21 19-47 27-25 8-51 22-56 30-7 11 3 47 34 123l42 107h182 182l31-79c46-117 49-146 20-164-12-9-35-19-50-22-16-4-28-13-28-21 0-12 61-14 370-14 308 0 370 2 370 14 0 8-19 18-44 25-25 6-57 21-71 34l-26 22 3 312 3 313 280-360c220-283 285-360 303-360h22v408c0 305 3 413 13 432 8 17 29 31 62 42 29 9 51 23 53 32 3 15-14 16-165 14-195-3-204-9-95-54 26-10 44-25 48-38 2-12 3-136 2-277l-3-255-240 310-241 311h-124c-130 0-159-11-98-36 17-7 47-26 65-42l33-29v-364-365l-25-24c-20-21-34-25-80-25-70 0-104 17-138 69-25 38-156 341-295 683-53 129-61 143-85 146-17 2-29-3-36-16zm57-368c33-78 63-151 67-163 6-21 5-21-140-21-130 0-146 2-141 16 44 114 141 323 147 317 4-4 35-72 67-149z"/>
    <path d="m5881 1018c-50-127-346-780-368-810-15-23-42-47-60-55-48-20-126-17-154 6l-24 19v375 375l23 25c13 14 44 30 69 36 27 7 43 16 40 24-3 9-59 13-211 15-189 2-207 1-204-14 2-10 22-22 50-31 80-23 78-10 78-415 0-250-3-365-12-383-8-18-26-30-65-42-29-9-53-23-53-30 0-10 69-13 360-13 301 0 360 2 360 14 0 8-15 17-34 20-19 4-45 15-57 25l-22 17 44 110 45 109 180 3 181 2 37-95c20-52 36-104 36-115 0-22-30-45-72-55-16-4-28-13-28-21 0-12 89-14 568-14h568l18 118c10 64 20 125 23 135 3 13-2 17-21 17-21 0-27-8-42-52-41-125-72-142-261-143-103 0-145 4-155 13-19 19-24 716-5 752 8 17 29 31 62 42 29 9 51 23 53 32 3 15-17 16-204 14-224-3-261-13-160-42 36-11 60-24 68-39 18-30 24-643 8-722-14-67-41-85-123-85-101 0-103 2-327 547-141 343-146 352-173 353-19 0-30-7-36-22zm65-378 71-170h-148-149l13 33c98 229 132 307 137 307 3 0 37-76 76-170z"/>
    <path d="m12 1014c2-9 25-23 53-32 76-26 77-30 73-444-3-391 2-365-83-397-93-35-71-41 159-41 177 0 216 2 216 14 0 8-18 18-44 25-24 6-54 19-67 30-23 19-24 24-27 195l-3 176h123c170 0 192-12 213-112 4-19 12-28 25-28 19 0 20 7 20 170v170h-25c-21 0-25-5-25-32-1-72-39-88-206-88h-124v153c0 197-9 187 166 187 193 0 237-20 264-115 9-33 18-45 31-45 17 0 19 8 19 63 0 34-3 86-6 115l-7 52h-374c-338 0-374-2-371-16z"/>
    <path d="m820 1015c0-9 17-19 45-26 87-22 85-10 85-426 0-226-4-371-10-383-6-11-35-27-65-36-30-10-55-24-55-31 0-10 43-13 210-13s210 3 210 13c0 7-22 19-50 26-83 21-80 6-80 422 0 418-2 406 85 428 28 7 45 17 45 26 0 13-31 15-210 15s-210-2-210-15z"/>
    <path d="m1300 1015c0-8 15-21 33-28 18-8 47-31 65-52l33-37-3-354c-3-397 2-371-83-403-90-34-70-41 119-41 143 0 176 3 176 14 0 8-19 18-46 25-25 7-56 23-70 36l-24 24v313l1 313 24-30c14-16 141-179 282-362 198-254 263-332 280-332l22-1 3 418c2 338 6 422 17 436 7 9 38 23 68 32 95 28 63 39-121 42-152 2-167 1-164-14 2-10 21-22 49-30 26-8 53-21 60-30 11-13 15-75 16-288l3-271-30 34c-16 19-127 162-247 317l-218 283-122 1c-102 0-123-3-123-15z"/>
    <path d="m7626 968c-19-215-19-198 8-198 22 0 26 6 36 54 21 103 70 136 200 136h80v-385c0-437 5-413-85-436-26-7-45-17-45-25 0-11 38-14 210-14 174 0 210 2 210 14 0 9-16 17-41 21-51 9-87 41-90 80 0 17-1 191 0 388l1 359 94-4c77-2 100-7 123-24 35-26 54-65 61-121 4-37 8-43 29-43h24l-3 128-3 127-402 3-401 2z"/>
    <path d="m8490 1015c0-8 17-19 43-26 23-6 52-20 65-32l22-20v-369c0-230-4-376-10-388-6-11-35-27-65-36-30-10-55-24-55-31 0-10 43-13 210-13s210 3 210 13c0 7-22 19-50 26-83 21-80 6-80 422 0 418-2 406 85 428 28 7 45 17 45 26 0 13-31 15-210 15-178 0-210-2-210-15z"/>
    <path d="m8992 1014c2-10 21-22 49-30 26-8 52-21 60-30 15-18 15-123 0-541-8-251-8-251-87-273-24-7-44-19-44-26 0-11 32-14 165-14 134 0 165 3 165 14 0 8-18 18-42 24-86 22-83 13-80 254 2 117 7 267 10 333l7 120 152-370c119-291 155-370 169-370s50 81 173 382c85 211 156 382 157 380 1-1 7-147 13-325 14-378 16-367-72-397-31-11-57-25-57-32 0-10 46-13 205-13 224 0 250 8 152 45-34 13-56 28-63 45-14 31-37 701-25 733 13 33 41 54 89 67 26 6 42 16 39 23-3 9-46 12-152 12h-148l-131-322c-72-177-133-324-136-327s-66 142-141 322l-135 327-148 3c-133 2-147 1-144-14z"/>
    <path d="m10207 1023c-15-14-5-22 47-37 29-9 60-23 67-32 11-14 14-88 14-390 0-420 6-391-80-423-101-38-77-41 353-41h411l6 53c4 28 7 90 8 137 2 71-1 85-15 88-12 2-21-11-33-50-46-140-67-151-291-156-149-3-173-2-187 13-15 14-17 41-17 192v176l138-5c79-2 146-9 159-16 27-15 45-46 52-92 5-26 12-36 29-38l22-3v175 176h-25c-21 0-25-5-25-29 0-17-10-42-24-58l-24-28-151-3-151-3v165 166h175c223 0 250-9 280-97 9-26 20-39 34-41 20-3 21 1 21 65 0 37-3 85-6 106l-7 37h-387c-213 0-390-3-393-7z"/>
  </g>
</svg>